<svg width="430" height="900" viewBox="0 0 430 900" fill="none" xmlns="http://www.w3.org/2000/svg">
<g opacity="0.6">
<path d="M100.442 29.0364C60.8609 29.0364 28.7807 60.8929 28.7807 100.188L100.442 100.188L100.442 29.0364Z" fill="#007936"/>
<path d="M177.489 100.188C177.489 60.888 142.993 29.0363 100.443 29.0363L100.443 100.188L177.489 100.188Z" fill="#8DCED4"/>
<path d="M-3.11503 100.589C-3.11502 44.0337 43.7454 0.0932083 100.442 0.0932083L100.442 29.5061C61.1269 29.5061 29.2467 61.3719 29.2467 100.589L-3.11503 100.589Z" fill="#008999"/>
<path d="M204 100.589C204 44.0337 157.139 0.0932083 100.442 0.0932083L100.442 29.5061C139.758 29.5061 171.638 61.3719 171.638 100.589L204 100.589Z" fill="#008999"/>
<path d="M100.442 171.339C139.909 171.339 171.897 139.482 171.897 100.188L100.442 100.188L100.442 171.339Z" fill="#E12229"/>
<path d="M-3.11503 100.188C-3.11502 156.743 43.7454 200.684 100.442 200.684L100.442 171.271C61.1269 171.271 29.2467 139.405 29.2467 100.188L-3.11503 100.188Z" fill="#FFB701"/>
<path d="M307.558 828.943C267.976 828.943 235.896 860.8 235.896 900.094L307.558 900.094L307.558 828.943Z" fill="#007936"/>
<path d="M384.604 900.094C384.604 860.795 350.108 828.943 307.558 828.943L307.558 900.094L384.604 900.094Z" fill="#8DCED4"/>
<path d="M204 900.496C204 843.941 250.861 800 307.558 800V829.413C268.242 829.413 236.362 861.279 236.362 900.496H204Z" fill="#008999"/>
<path d="M411.115 900.496C411.115 843.941 364.255 800 307.558 800V829.413C346.873 829.413 378.753 861.279 378.753 900.496H411.115Z" fill="#008999"/>
<path d="M388.136 322.271C364.863 322.271 346 303.406 346 280.136L388.136 280.135L388.136 322.271Z" fill="#007936"/>
<path d="M430.203 280.135C430.203 303.408 411.338 322.271 388.068 322.271L388.068 280.135L430.203 280.135Z" fill="#89C501"/>
<path d="M388.136 238C364.863 238 346 256.865 346 280.135L388.136 280.135L388.136 238Z" fill="#FEEED7"/>
<path d="M388.136 238C411.409 238 430.271 256.865 430.271 280.135L388.136 280.135L388.136 238Z" fill="#FFB701"/>
<path d="M80.1357 780.271C56.8628 780.271 38.0003 761.406 38.0003 738.136L80.1357 738.135L80.1357 780.271Z" fill="#007936"/>
<path d="M122.203 738.135C122.203 761.408 103.338 780.271 80.0678 780.271L80.0677 738.135L122.203 738.135Z" fill="#89C501"/>
<path d="M80.1357 696C56.8628 696 38.0003 714.865 38.0003 738.135L80.1357 738.135L80.1357 696Z" fill="#FEEED7"/>
<path d="M80.1358 696C103.409 696 122.271 714.865 122.271 738.135L80.1357 738.135L80.1358 696Z" fill="#FFB701"/>
</g>
</svg>
