<svg width="430" height="927" viewBox="0 0 430 927" fill="none" xmlns="http://www.w3.org/2000/svg">
<g clip-path="url(#clip0_82_10)">
<path d="M20.4424 -17.9636C-19.1391 -17.9636 -51.2193 13.8929 -51.2193 53.1876L20.4424 53.1877L20.4424 -17.9636Z" fill="#007936"/>
<path d="M97.4893 53.1876C97.4893 13.888 62.9932 -17.9637 20.4426 -17.9637L20.4426 53.1876L97.4893 53.1876Z" fill="#8DCED4"/>
<path d="M-83.115 53.5895C-83.115 -2.96631 -36.2546 -46.9068 20.4424 -46.9068L20.4424 -17.4939C-18.8731 -17.4939 -50.7533 14.3719 -50.7533 53.5895L-83.115 53.5895Z" fill="#008999"/>
<path d="M124 53.5895C124 -2.96631 77.1394 -46.9068 20.4424 -46.9068L20.4424 -17.4939C59.7578 -17.4939 91.6381 14.3719 91.6381 53.5895L124 53.5895Z" fill="#008999"/>
<path d="M20.4424 124.339C59.9095 124.339 91.897 92.4824 91.897 53.1877L20.4424 53.1876L20.4424 124.339Z" fill="#E12229"/>
<path d="M-83.115 53.1876C-83.115 109.743 -36.2546 153.684 20.4424 153.684L20.4424 124.271C-18.8731 124.271 -50.7533 92.4052 -50.7533 53.1876L-83.115 53.1876Z" fill="#FFB701"/>
<path d="M408.558 821.943C368.976 821.943 336.896 853.8 336.896 893.094L408.558 893.094L408.558 821.943Z" fill="#007936"/>
<path d="M485.604 893.094C485.604 853.795 451.108 821.943 408.558 821.943L408.558 893.094L485.604 893.094Z" fill="#8DCED4"/>
<path d="M305 893.496C305 836.941 351.861 793 408.558 793V822.413C369.242 822.413 337.362 854.279 337.362 893.496H305Z" fill="#008999"/>
<path d="M512.115 893.496C512.115 836.941 465.255 793 408.558 793V822.413C447.873 822.413 479.753 854.279 479.753 893.496H512.115Z" fill="#008999"/>
<path d="M408.558 964.246C448.025 964.246 480.012 932.389 480.012 893.094L408.558 893.094L408.558 964.246Z" fill="#E12229"/>
<path d="M305 893.094C305 949.65 351.861 993.591 408.558 993.591V964.178C369.242 964.178 337.362 932.312 337.362 893.094H305Z" fill="#FFB701"/>
</g>
<defs>
<clipPath id="clip0_82_10">
<rect width="430" height="927" fill="white"/>
</clipPath>
</defs>
</svg>
