<svg width="500" height="180" viewBox="0 0 500 180" fill="none" xmlns="http://www.w3.org/2000/svg">
<g clip-path="url(#clip0_201_2)">
<path d="M426.633 153.956H393.621L418.96 26.0283H451.973L426.633 153.956ZM389.28 63.5948H356.268C357.393 58.6293 356.647 54.9145 354.206 52.2565C351.922 49.5927 347.902 48.1791 342.291 48.1791C334.717 48.1791 327.049 53.4951 325.785 59.8737C323.938 69.2546 333.895 72.2752 342.151 74.7577C361.052 80.2487 389.659 82.3686 382.837 116.927C377.505 143.85 350.209 156.639 322.645 156.639C302.252 156.639 284.534 151.917 279.157 135.569C277.234 129.71 276.896 122.362 278.574 113.206H311.586C309.057 125.251 315.991 131.811 327.9 131.811C335.527 131.811 346.09 127.552 347.768 119.047C351.205 101.687 326.03 105.402 302.544 93.1815C291.619 87.5155 288.013 75.8145 290.739 61.9937C298.057 31.7067 324.462 23.3767 349.387 23.3767C373.986 23.3767 397.373 32.7574 389.309 63.5948H389.28ZM266.03 77.2155L261.13 102.018H207.982L202.616 129.122H260.39L255.467 153.931H164.675L190.019 26.0283H280.805L279.133 34.4459L275.882 50.8371H218.102L212.859 77.2344L266.03 77.2155ZM159.99 63.576H126.961C128.085 58.6104 127.345 54.8956 124.898 52.2381C122.614 49.5738 118.6 48.1607 112.989 48.1607C105.415 48.1607 97.7473 53.4762 96.4775 59.8548C94.6361 69.2357 104.593 72.2563 112.849 74.7393C131.744 80.2298 160.357 82.3497 153.535 116.908C148.198 143.831 120.907 156.62 93.3428 156.62C65.6095 156.62 42.8865 147.908 49.2662 113.188H82.2843C79.75 125.232 86.6892 131.793 98.5689 131.793C106.19 131.793 116.753 127.533 118.425 119.029C121.868 101.668 96.6987 105.383 73.2009 93.1626C62.2825 87.497 58.6761 75.7961 61.4027 61.9752C68.7149 31.688 95.1316 23.3579 120.056 23.3579C144.65 23.3579 168.037 32.7386 159.973 63.576H159.99ZM464.378 30.9375V26.1971H498.171V0H0.470703V26.2096H34.2635V30.9375H0.470703V56.4217H34.2635V61.1623H0.470703V87.4282H34.2635V92.2245H0.470703V118.928H34.2635V123.669H0.470703V149.253H34.2635V153.993H0.470703V179.959H498.176V153.969H464.383V149.228H498.176V123.644H464.383V118.903H498.176V92.2245H464.383V87.4844H498.176V61.2185H464.383V56.4779H498.176V30.9375H464.378Z" fill="#1E984F"/>
</g>
<defs>
<clipPath id="clip0_201_2">
<rect width="500" height="179.959" fill="white"/>
</clipPath>
</defs>
</svg>
